# Blender 4.5.3 LTS
# www.blender.org
o AF
v 1.000000 1.000000 1.000000
v 1.000000 1.000000 -0.000000
v 0.000000 1.000000 -0.000000
v 1.000000 0.000000 1.000000
v 1.000000 0.000000 0.000000
v 0.000000 0.000000 0.000000
v 1.000000 1.000000 1.000000
v 1.000000 1.000000 -0.000000
v 0.000000 1.000000 -0.000000
vn -0.0000 -1.0000 -0.0000
vn -0.7071 -0.0000 0.7071
vn -0.0000 -0.0000 -1.0000
vn 1.0000 -0.0000 -0.0000
vn -0.0000 1.0000 -0.0000
vt 0.000000 0.500000
vt 0.000000 1.000000
vt 0.500000 0.500000
vt 0.500000 1.000000
s 1
f 5/1/1 4/2/1 6/3/1
f 6/2/2 4/4/2 1/3/2 3/1/2
f 5/2/3 6/4/3 3/3/3 2/1/3
f 5/4/4 2/3/4 1/1/4 4/2/4
f 8/2/5 9/4/5 7/1/5
