# Blender 4.5.3 LTS
# www.blender.org
o EF
v 1.000000 0.000000 0.000000
v 1.000000 1.000000 -0.000000
v 1.000000 0.000000 1.000000
v 1.000000 1.000000 1.000000
v 0.000000 0.000000 0.000000
v 0.000000 1.000000 -0.000000
v 0.000000 1.000000 1.000000
vn -0.0000 -1.0000 -0.0000
vn -0.0000 -0.0000 1.0000
vn -0.0000 1.0000 -0.0000
vn 1.0000 -0.0000 -0.0000
vn -0.0000 -0.0000 -1.0000
vn -1.0000 -0.0000 -0.0000
vn -0.5774 -0.5774 0.5774
vt 0.000000 0.500000
vt 0.000000 1.000000
vt 0.500000 0.500000
vt 0.500000 1.000000
vt 0.250000 0.500000
s 1
f 1/1/1 3/2/1 5/3/1
f 4/3/2 7/1/2 3/4/2
f 6/4/3 7/3/3 4/1/3 2/2/3
f 2/3/4 4/1/4 3/2/4 1/4/4
f 6/3/5 2/1/5 1/2/5 5/4/5
f 5/2/6 7/3/6 6/1/6
f 7/5/7 5/2/7 3/4/7
