# Blender 4.5.3 LTS
# www.blender.org
o FE
v 1.000000 0.000000 1.000000
v 1.000000 1.000000 1.000000
v 0.000000 0.000000 1.000000
v 0.000000 1.000000 1.000000
v 1.000000 0.000000 0.000000
v 1.000000 1.000000 -0.000000
v 0.000000 1.000000 -0.000000
vn -0.0000 -1.0000 -0.0000
vn -1.0000 -0.0000 -0.0000
vn -0.0000 1.0000 -0.0000
vn -0.0000 -0.0000 1.0000
vn 1.0000 -0.0000 -0.0000
vn -0.0000 -0.0000 -1.0000
vn -0.5774 -0.5774 -0.5774
vt 0.000000 1.000000
vt 0.500000 1.000000
vt 0.000000 0.500000
vt 0.500000 0.500000
vt 0.250000 0.500000
s 1
f 1/1/1 3/2/1 5/3/1
f 4/4/2 7/3/2 3/2/2
f 6/1/3 7/2/3 4/4/3 2/3/3
f 2/4/4 4/3/4 3/1/4 1/2/4
f 6/4/5 2/3/5 1/1/5 5/2/5
f 5/1/6 7/4/6 6/3/6
f 7/5/7 5/1/7 3/2/7
